<svg class="diagram-root" style="background: #f5f6f6" xmlns="http://www.w3.org/2000/svg" xmlns:xlink="http://www.w3.org/1999/xlink"><style>.diagram-root { font-family: "Helvetica Neue", sans-serif; font-size: 12px; } .t { overflow: visible; } .t-bg { y: 40; fill: #fff;   } .th { fill: #005aa0;   } .tht { fill: #fff; font-size: 14px;  } .tf { fill: #323c46; overflow: visible; } .tf.pk { fill: #005aa0; font-weight: bold; } .tf.fk { font-weight: bold; } .ty { fill: #adb1b5; font-weight: normal; text-anchor: end; } .r { fill: transparent; stroke: #c3c3c3; stroke-width: 1; } .l { stroke: 1; } .i { fill: #c2c7ce; stroke: #c2c7ce; } .i.ix { fill: #afb3b6; stroke: #000; } .fa { fill: transparent; overflow: visible; } .fa .bg.hover { fill: #f7f7f7; } .c { cy: 12; r: 4; stroke: #d2d2dc; fill: #d2d2dc; } .hr { fill: transparent; stroke: #323c46; stroke-opacity: 0.035; stroke-width: 13; } .dc { stroke: #fa5a3c; fill: #fa5a3c; } .x { stroke: white; stroke-width: 1; } .hl .th { fill: #1b9bff; } .hl .tht {  } .fhl .bg { fill: #e7f4ff; } .fhls .bg {  } .r.hl { stroke: #1b9bff; } .dim { opacity: 0.25; }</style><g class="drawing-wrapper" transform="translate(-48.00000000000004, 2.2222222222222214) scale(1,1)"><g class="rs"><path d="M 316.1144444444445 110.88444444444444 m -1, 0 a 1,1 0 1,0 2,0 a 1,1 0 1,0 -2,0 M 316.1144444444445 110.88444444444444 m -0.5, 0 a 0.5,0.5 0 1,0 1,0 a 0.5,0.5 0 1,0 -1,0  M316.1144444444445 110.88444444444444 L316.1144444444445 110.88444444444444 304.1144444444445 110.88444444444444 M 316.1144444444445 116.88444444444444 m -1, 0 a 1,1 0 1,0 2,0 a 1,1 0 1,0 -2,0 M 316.1144444444445 116.88444444444444 m -0.5, 0 a 0.5,0.5 0 1,0 1,0 a 0.5,0.5 0 1,0 -1,0  M316.1144444444445 116.88444444444444 L316.1144444444445 116.88444444444444 309.1144444444445 110.88444444444444 316.1144444444445 104.88444444444444 M 316.1144444444445 104.88444444444444 m -1, 0 a 1,1 0 1,0 2,0 a 1,1 0 1,0 -2,0 M 316.1144444444445 104.88444444444444 m -0.5, 0 a 0.5,0.5 0 1,0 1,0 a 0.5,0.5 0 1,0 -1,0  M304.1144444444445 110.88444444444444 Q 280.76 110.88444444444444, 257.41 110.33 T 210.71 109.77777777777777 M 198.71 109.77777777777777 m -1, 0 a 1,1 0 1,0 2,0 a 1,1 0 1,0 -2,0 M 198.71 109.77777777777777 m -0.5, 0 a 0.5,0.5 0 1,0 1,0 a 0.5,0.5 0 1,0 -1,0  M198.71 109.77777777777777 L198.71 109.77777777777777 210.71 109.77777777777777 M204.71 115.77777777777777 L204.71 115.77777777777777 204.71 103.77777777777777" id="h2650820805" class="r"></path></g><g class="hrs"></g><g class="ts"><svg width="133.38" height="250" x="316.1144444444445" y="28.884444444444437" id="h1611266215" class="t"><rect height="40" width="133.38" class="th"></rect><text x="13" y="25" class="tht">Posts</text><rect height="210" width="133.38" class="t-bg"></rect><text x="13" y="61" class="tf pk">id<tspan x="120.38" class="ty">int</tspan></text><path d="M7,14A2,2 0 0,1 5,12A2,2 0 0,1 7,10A2,2 0 0,1 9,12A2,2 0 0,1 7,14M12.65,10C11.83,7.67 9.61,6 7, 6A6, 6 0 0, 0 1, 12A6, 6 0 0, 0 7, 18C9.61, 18 11.83, 16.33 12.65, 14H17V18H21V14H23V10H12.65Z" class="i pk" transform="translate(87.706171875, 48) scale(0.65)"></path><text x="13" y="86" class="tf fk">user<tspan x="120.38" class="ty">string</tspan></text><text x="13" y="111" class="tf">title<tspan x="120.38" class="ty">string</tspan></text><text x="13" y="136" class="tf">description<tspan x="120.38" class="ty">string</tspan></text><text x="13" y="161" class="tf">location<tspan x="120.38" class="ty">string</tspan></text><text x="13" y="186" class="tf">image<tspan x="120.38" class="ty">string?</tspan></text><text x="13" y="211" class="tf">text<tspan x="120.38" class="ty">text</tspan></text><text x="13" y="236" class="tf">date<tspan x="120.38" class="ty">date</tspan></text></svg><svg width="128.71" height="150" x="70.00000000000004" y="27.77777777777778" id="h3889921393" class="t"><rect height="40" width="128.71" class="th"></rect><text x="13" y="25" class="tht">Users</text><rect height="110" width="128.71" class="t-bg"></rect><text x="13" y="61" class="tf pk">id<tspan x="115.71000000000001" class="ty">int</tspan></text><path d="M7,14A2,2 0 0,1 5,12A2,2 0 0,1 7,10A2,2 0 0,1 9,12A2,2 0 0,1 7,14M12.65,10C11.83,7.67 9.61,6 7, 6A6, 6 0 0, 0 1, 12A6, 6 0 0, 0 7, 18C9.61, 18 11.83, 16.33 12.65, 14H17V18H21V14H23V10H12.65Z" class="i pk" transform="translate(83.03617187500001, 48) scale(0.65)"></path><text x="13" y="86" class="tf fk">username<tspan x="115.71000000000001" class="ty">string</tspan></text><text x="13" y="111" class="tf">hash<tspan x="115.71000000000001" class="ty">string</tspan></text><text x="13" y="136" class="tf">type<tspan x="115.71000000000001" class="ty">string</tspan></text></svg></g></g></svg>